<svg width="43" height="46" viewBox="0 0 43 46" fill="none" xmlns="http://www.w3.org/2000/svg">
<path d="M4.774 45.66C7.574 45.66 9.548 43.616 9.548 40.83C9.548 38.044 7.574 36 4.774 36C1.974 36 0 38.044 0 40.83C0 43.616 1.974 45.66 4.774 45.66ZM4.774 44.204C2.884 44.204 1.68 42.748 1.68 40.83C1.68 38.898 2.884 37.456 4.774 37.456C6.65 37.456 7.868 38.898 7.868 40.83C7.868 42.748 6.65 44.204 4.774 44.204Z" fill="#EDF0F9"/>
<path d="M12.7531 45.492V40.886C13.0471 40.41 13.8731 39.99 14.4891 39.99C14.6711 39.99 14.8251 40.004 14.9511 40.032V38.576C14.0691 38.576 13.2571 39.08 12.7531 39.724V38.73H11.2831V45.492H12.7531Z" fill="#EDF0F9"/>
<path d="M22.5666 45.492V36.154H21.0966V39.668C20.5506 38.954 19.7666 38.562 18.9266 38.562C17.1766 38.562 15.9166 39.934 15.9166 42.118C15.9166 44.344 17.1906 45.66 18.9266 45.66C19.7946 45.66 20.5786 45.24 21.0966 44.568V45.492H22.5666ZM19.3466 44.358C18.1846 44.358 17.4426 43.42 17.4426 42.118C17.4426 40.802 18.1846 39.864 19.3466 39.864C20.0466 39.864 20.7606 40.27 21.0966 40.774V43.462C20.7606 43.966 20.0466 44.358 19.3466 44.358Z" fill="#EDF0F9"/>
<path d="M27.7934 45.66C28.8714 45.66 29.8654 45.324 30.5374 44.68L29.8654 43.714C29.3894 44.19 28.6054 44.456 27.9474 44.456C26.6734 44.456 25.9034 43.616 25.7914 42.594H31.0134V42.244C31.0134 40.116 29.7114 38.562 27.6814 38.562C25.6794 38.562 24.2514 40.144 24.2514 42.104C24.2514 44.246 25.7634 45.66 27.7934 45.66ZM29.5854 41.558H25.7774C25.8474 40.732 26.4214 39.766 27.6814 39.766C29.0114 39.766 29.5574 40.76 29.5854 41.558Z" fill="#EDF0F9"/>
<path d="M34.1343 45.492V40.886C34.4283 40.41 35.2543 39.99 35.8703 39.99C36.0523 39.99 36.2063 40.004 36.3323 40.032V38.576C35.4503 38.576 34.6383 39.08 34.1343 39.724V38.73H32.6643V45.492H34.1343Z" fill="#EDF0F9"/>
<path d="M40.0278 45.66C41.8478 45.66 42.8418 44.75 42.8418 43.56C42.8418 40.872 38.7538 41.768 38.7538 40.564C38.7538 40.088 39.2438 39.738 40.0138 39.738C40.8538 39.738 41.6098 40.088 42.0158 40.55L42.6318 39.514C42.0158 38.968 41.1478 38.562 39.9998 38.562C38.2918 38.562 37.3398 39.514 37.3398 40.62C37.3398 43.21 41.4278 42.258 41.4278 43.588C41.4278 44.12 40.9798 44.498 40.0978 44.498C39.2158 44.498 38.2778 44.036 37.8018 43.546L37.1298 44.61C37.8298 45.296 38.8798 45.66 40.0278 45.66Z" fill="#EDF0F9"/>
<path fill-rule="evenodd" clip-rule="evenodd" d="M11.9231 0.985551L11.8164 0.974169C11.4283 0.959691 11.0798 1.23977 11.0117 1.64114L11.0005 1.74997C10.9863 2.14603 11.2608 2.5017 11.6541 2.57117L13.2405 2.85115L14.2019 14.54L14.2218 14.7157C14.4153 16.0486 15.5387 17.0506 16.8768 17.0506H28.3484L28.5212 17.045C29.7788 16.9631 30.8217 15.9925 31.0052 14.7032L32.0029 7.66736L32.0201 7.50575C32.112 6.21939 31.1133 5.10294 29.8275 5.10294H15.0077L14.761 2.09727L14.7424 1.97834C14.6704 1.66903 14.424 1.42726 14.1097 1.37176L11.9231 0.985551ZM16.7006 18.7504C15.8213 18.7504 15.1089 19.4787 15.1089 20.3757C15.1089 21.2728 15.8215 21.9999 16.7006 21.9999C17.5795 21.9999 18.2933 21.2729 18.2933 20.3757C18.2933 19.4786 17.5797 18.7504 16.7006 18.7504ZM28.5296 18.7504C27.6505 18.7504 26.9369 19.4786 26.9369 20.3757C26.9369 21.2729 27.6506 21.9999 28.5296 21.9999C29.4086 21.9999 30.1223 21.2729 30.1223 20.3757C30.1223 19.4786 29.4087 18.7504 28.5296 18.7504Z" fill="#E9ECF5"/>
</svg>
