<svg width="48" height="45" viewBox="0 0 48 45" fill="none" xmlns="http://www.w3.org/2000/svg">
<path d="M5.54111 44.66C7.43111 44.66 8.57911 43.68 9.29311 42.56L7.89311 41.846C7.44511 42.63 6.54911 43.204 5.54111 43.204C3.69311 43.204 2.32111 41.79 2.32111 39.83C2.32111 37.87 3.69311 36.456 5.54111 36.456C6.54911 36.456 7.44511 37.044 7.89311 37.814L9.29311 37.1C8.59311 35.98 7.43111 35 5.54111 35C2.78311 35 0.641113 36.96 0.641113 39.83C0.641113 42.7 2.78311 44.66 5.54111 44.66Z" fill="#EDF0F9"/>
<path d="M13.8141 44.66C15.9841 44.66 17.3001 43.05 17.3001 41.104C17.3001 39.172 15.9841 37.562 13.8141 37.562C11.6721 37.562 10.3421 39.172 10.3421 41.104C10.3421 43.05 11.6721 44.66 13.8141 44.66ZM13.8141 43.358C12.5681 43.358 11.8681 42.308 11.8681 41.104C11.8681 39.914 12.5681 38.864 13.8141 38.864C15.0741 38.864 15.7741 39.914 15.7741 41.104C15.7741 42.308 15.0741 43.358 13.8141 43.358Z" fill="#EDF0F9"/>
<path d="M25.0215 44.492V37.73H23.5515V42.476C23.2015 42.938 22.5575 43.358 21.8155 43.358C20.9895 43.358 20.4575 43.036 20.4575 41.986V37.73H18.9875V42.518C18.9875 43.904 19.7015 44.66 21.1575 44.66C22.2215 44.66 23.0615 44.142 23.5515 43.596V44.492H25.0215Z" fill="#EDF0F9"/>
<path d="M28.6008 44.492V39.886C28.8948 39.41 29.7208 38.99 30.3368 38.99C30.5188 38.99 30.6728 39.004 30.7988 39.032V37.576C29.9168 37.576 29.1048 38.08 28.6008 38.724V37.73H27.1308V44.492H28.6008Z" fill="#EDF0F9"/>
<path d="M32.9123 36.904C33.4163 36.904 33.8223 36.498 33.8223 35.994C33.8223 35.49 33.4163 35.084 32.9123 35.084C32.4223 35.084 32.0023 35.49 32.0023 35.994C32.0023 36.498 32.4223 36.904 32.9123 36.904ZM33.6543 44.492V37.73H32.1843V44.492H33.6543Z" fill="#EDF0F9"/>
<path d="M38.8833 44.66C39.9613 44.66 40.9553 44.324 41.6273 43.68L40.9553 42.714C40.4793 43.19 39.6953 43.456 39.0373 43.456C37.7633 43.456 36.9933 42.616 36.8813 41.594H42.1033V41.244C42.1033 39.116 40.8013 37.562 38.7713 37.562C36.7693 37.562 35.3413 39.144 35.3413 41.104C35.3413 43.246 36.8533 44.66 38.8833 44.66ZM40.6753 40.558H36.8673C36.9373 39.732 37.5113 38.766 38.7713 38.766C40.1013 38.766 40.6473 39.76 40.6753 40.558Z" fill="#EDF0F9"/>
<path d="M45.2243 44.492V39.886C45.5183 39.41 46.3443 38.99 46.9603 38.99C47.1423 38.99 47.2963 39.004 47.4223 39.032V37.576C46.5403 37.576 45.7283 38.08 45.2243 38.724V37.73H43.7543V44.492H45.2243Z" fill="#EDF0F9"/>
<path d="M13.2727 2C12.67 2 12.0919 2.23705 11.6657 2.65901C11.2394 3.08097 11 3.65326 11 4.25V15.625C11 16.1773 11.4477 16.625 12 16.625H13.2727C13.2727 17.5201 13.6319 18.3786 14.2712 19.0115C14.9106 19.6444 15.7777 20 16.6818 20C17.586 20 18.4531 19.6444 19.0924 19.0115C19.7317 18.3786 20.0909 17.5201 20.0909 16.625H26.9091C26.9091 17.5201 27.2683 18.3786 27.9076 19.0115C28.5469 19.6444 29.414 20 30.3182 20C31.2223 20 32.0894 19.6444 32.7288 19.0115C33.3681 18.3786 33.7273 17.5201 33.7273 16.625H35C35.5523 16.625 36 16.1773 36 15.625V11.336C36 11.118 35.9287 10.9059 35.7971 10.7322L32.891 6.89614C32.702 6.64661 32.407 6.5 32.0939 6.5H29.1818V4C29.1818 2.89543 28.2864 2 27.1818 2H13.2727ZM21.2273 4.25L25.7727 8.75L21.2273 13.25V9.875H14.4091V7.625H21.2273V4.25ZM29.1818 8.1875H32.0227L34.2614 11H29.1818V8.1875ZM16.6818 14.9375C17.1339 14.9375 17.5674 15.1153 17.8871 15.4318C18.2068 15.7482 18.3864 16.1774 18.3864 16.625C18.3864 17.0726 18.2068 17.5018 17.8871 17.8182C17.5674 18.1347 17.1339 18.3125 16.6818 18.3125C16.2297 18.3125 15.7962 18.1347 15.4765 17.8182C15.1569 17.5018 14.9773 17.0726 14.9773 16.625C14.9773 16.1774 15.1569 15.7482 15.4765 15.4318C15.7962 15.1153 16.2297 14.9375 16.6818 14.9375ZM30.3182 14.9375C30.7703 14.9375 31.2038 15.1153 31.5235 15.4318C31.8431 15.7482 32.0227 16.1774 32.0227 16.625C32.0227 17.0726 31.8431 17.5018 31.5235 17.8182C31.2038 18.1347 30.7703 18.3125 30.3182 18.3125C29.8661 18.3125 29.4326 18.1347 29.1129 17.8182C28.7932 17.5018 28.6136 17.0726 28.6136 16.625C28.6136 16.1774 28.7932 15.7482 29.1129 15.4318C29.4326 15.1153 29.8661 14.9375 30.3182 14.9375Z" fill="#E9ECF5"/>
</svg>
