<svg xmlns="http://www.w3.org/2000/svg" width="70.449" height="62.739" viewBox="0 0 70.449 62.739"><path d="M33.34.35" transform="translate(1.074 0.011)" fill="#fff"/><path d="M67.62,19.994,33.8,0,18.94,9.889,53.055,29.676Z" transform="translate(0.61)" fill="#fff"/><path d="M2.78,20.663,16.818,11.27,50.572,31.254,36.565,40.317Z" transform="translate(0.09 0.363)" fill="#fff"/><path d="M51.013,31.85l15.845,9.218L52.9,50.347,37.46,41.1Z" transform="translate(1.207 1.026)" fill="#fff"/><path d="M17.392,31.84,52.116,51.814l-15.566,9.9L3.23,41.12Z" transform="translate(0.104 1.026)" fill="#fff"/><path d="M14.234,30.276,0,22.09V39.7Z" transform="translate(0 0.712)" fill="#fff"/><path d="M68.7,22.135v16.8l-14.41-8.4,14.4-9.858Z" transform="translate(1.749 0.667)" fill="#fff"/></svg>