<svg width="69" height="48" viewBox="0 0 69 48" fill="none" xmlns="http://www.w3.org/2000/svg">
<path d="M3.472 47.0021C6.384 47.0021 8.358 45.0841 8.358 42.3401C8.358 39.5961 6.384 37.6641 3.472 37.6641H0V47.0021H3.472ZM3.472 45.5601H1.638V39.1061H3.472C5.558 39.1061 6.678 40.5341 6.678 42.3401C6.678 44.1041 5.502 45.5601 3.472 45.5601Z" fill="#EDF0F9"/>
<path d="M15.6975 47.0021V42.5221C15.6975 40.7021 14.3815 40.0721 12.8835 40.0721C11.8055 40.0721 10.8255 40.4221 10.0415 41.1641L10.6435 42.1861C11.2315 41.6121 11.8895 41.3321 12.6455 41.3321C13.5835 41.3321 14.2275 41.8081 14.2275 42.5921V43.6001C13.7375 43.0261 12.9535 42.7321 12.0435 42.7321C10.9375 42.7321 9.69145 43.3761 9.69145 44.9301C9.69145 46.4281 10.9375 47.1701 12.0435 47.1701C12.9395 47.1701 13.7235 46.8481 14.2275 46.2741V47.0021H15.6975ZM12.6175 46.1621C11.7915 46.1621 11.1755 45.6861 11.1755 44.9581C11.1755 44.2161 11.7915 43.7401 12.6175 43.7401C13.2615 43.7401 13.8915 43.9781 14.2275 44.4401V45.4621C13.8915 45.9241 13.2615 46.1621 12.6175 46.1621Z" fill="#EDF0F9"/>
<path d="M20.1133 47.1701C21.9333 47.1701 22.9273 46.2601 22.9273 45.0701C22.9273 42.3821 18.8393 43.2781 18.8393 42.0741C18.8393 41.5981 19.3293 41.2481 20.0993 41.2481C20.9393 41.2481 21.6953 41.5981 22.1013 42.0601L22.7173 41.0241C22.1013 40.4781 21.2333 40.0721 20.0853 40.0721C18.3773 40.0721 17.4253 41.0241 17.4253 42.1301C17.4253 44.7201 21.5133 43.7681 21.5133 45.0981C21.5133 45.6301 21.0653 46.0081 20.1833 46.0081C19.3013 46.0081 18.3633 45.5461 17.8873 45.0561L17.2153 46.1201C17.9153 46.8061 18.9653 47.1701 20.1133 47.1701Z" fill="#EDF0F9"/>
<path d="M30.6548 47.0021V42.2141C30.6548 40.8281 29.9268 40.0721 28.4708 40.0721C27.4068 40.0721 26.5248 40.6321 26.0768 41.1641V37.6641H24.6068V47.0021H26.0768V42.2841C26.4268 41.8221 27.0708 41.3741 27.8128 41.3741C28.6388 41.3741 29.1848 41.6961 29.1848 42.7461V47.0021H30.6548Z" fill="#EDF0F9"/>
<path d="M34.2339 44.9721V42.2981C34.5559 41.7941 35.2839 41.3741 35.9699 41.3741C37.1459 41.3741 37.8879 42.3121 37.8879 43.6281C37.8879 44.9441 37.1459 45.8681 35.9699 45.8681C35.2839 45.8681 34.5559 45.4761 34.2339 44.9721ZM34.2339 47.0021V46.0781C34.7519 46.7501 35.5219 47.1701 36.4039 47.1701C38.1259 47.1701 39.3999 45.8541 39.3999 43.6281C39.3999 41.4441 38.1399 40.0721 36.4039 40.0721C35.5499 40.0721 34.7659 40.4641 34.2339 41.1781V37.6641H32.7639V47.0021H34.2339Z" fill="#EDF0F9"/>
<path d="M44.1506 47.1701C46.3206 47.1701 47.6366 45.5601 47.6366 43.6141C47.6366 41.6821 46.3206 40.0721 44.1506 40.0721C42.0086 40.0721 40.6786 41.6821 40.6786 43.6141C40.6786 45.5601 42.0086 47.1701 44.1506 47.1701ZM44.1506 45.8681C42.9046 45.8681 42.2046 44.8181 42.2046 43.6141C42.2046 42.4241 42.9046 41.3741 44.1506 41.3741C45.4106 41.3741 46.1106 42.4241 46.1106 43.6141C46.1106 44.8181 45.4106 45.8681 44.1506 45.8681Z" fill="#EDF0F9"/>
<path d="M54.924 47.0021V42.5221C54.924 40.7021 53.608 40.0721 52.11 40.0721C51.032 40.0721 50.052 40.4221 49.268 41.1641L49.87 42.1861C50.458 41.6121 51.116 41.3321 51.872 41.3321C52.81 41.3321 53.454 41.8081 53.454 42.5921V43.6001C52.964 43.0261 52.18 42.7321 51.27 42.7321C50.164 42.7321 48.918 43.3761 48.918 44.9301C48.918 46.4281 50.164 47.1701 51.27 47.1701C52.166 47.1701 52.95 46.8481 53.454 46.2741V47.0021H54.924ZM51.844 46.1621C51.018 46.1621 50.402 45.6861 50.402 44.9581C50.402 44.2161 51.018 43.7401 51.844 43.7401C52.488 43.7401 53.118 43.9781 53.454 44.4401V45.4621C53.118 45.9241 52.488 46.1621 51.844 46.1621Z" fill="#EDF0F9"/>
<path d="M58.4999 47.0021V42.3961C58.7939 41.9201 59.6199 41.5001 60.2359 41.5001C60.4179 41.5001 60.5719 41.5141 60.6979 41.5421V40.0861C59.8159 40.0861 59.0039 40.5901 58.4999 41.2341V40.2401H57.0299V47.0021H58.4999Z" fill="#EDF0F9"/>
<path d="M68.3134 47.0021V37.6641H66.8434V41.1781C66.2974 40.4641 65.5134 40.0721 64.6734 40.0721C62.9234 40.0721 61.6634 41.4441 61.6634 43.6281C61.6634 45.8541 62.9374 47.1701 64.6734 47.1701C65.5414 47.1701 66.3254 46.7501 66.8434 46.0781V47.0021H68.3134ZM65.0934 45.8681C63.9314 45.8681 63.1894 44.9301 63.1894 43.6281C63.1894 42.3121 63.9314 41.3741 65.0934 41.3741C65.7934 41.3741 66.5074 41.7801 66.8434 42.2841V44.9721C66.5074 45.4761 65.7934 45.8681 65.0934 45.8681Z" fill="#EDF0F9"/>
<path d="M30.3034 22H25.8589C24.6367 22 23.6367 21 23.6367 19.7778V4.22222C23.6367 3 24.6367 2 25.8589 2H30.3034C31.5256 2 32.5256 3 32.5256 4.22222V19.7778C32.5256 21 31.5256 22 30.3034 22ZM36.9701 22H41.4145C42.6367 22 43.6367 21 43.6367 19.7778V14.2222C43.6367 13 42.6367 12 41.4145 12H36.9701C35.7478 12 34.7478 13 34.7478 14.2222V19.7778C34.7478 21 35.7478 22 36.9701 22ZM43.6367 7.55556V4.22222C43.6367 3 42.6367 2 41.4145 2H36.9701C35.7478 2 34.7478 3 34.7478 4.22222V7.55556C34.7478 8.77778 35.7478 9.77778 36.9701 9.77778H41.4145C42.6367 9.77778 43.6367 8.77778 43.6367 7.55556Z" fill="#EDF0F9"/>
</svg>
