<svg width="46" height="46" viewBox="0 0 46 46" fill="none" xmlns="http://www.w3.org/2000/svg">
<path d="M4.9 45.9382C6.51 45.9382 7.826 45.2522 8.736 44.2302V40.7442H4.312V42.1862H7.112V43.6282C6.692 44.0342 5.852 44.4682 4.9 44.4682C3.052 44.4682 1.68 43.0402 1.68 41.0942C1.68 39.1202 3.052 37.7202 4.9 37.7202C5.936 37.7202 6.818 38.2662 7.322 38.9662L8.652 38.1962C7.91 37.1322 6.72 36.2642 4.9 36.2642C2.184 36.2642 0 38.1542 0 41.0942C0 44.0202 2.184 45.9382 4.9 45.9382Z" fill="#EDF0F9"/>
<path d="M12.0692 45.7562V41.1502C12.3632 40.6602 13.1892 40.2402 13.8192 40.2402C14.0012 40.2402 14.1412 40.2542 14.2672 40.2822V38.8262C13.3992 38.8262 12.5872 39.3302 12.0692 39.9742V38.9942H10.5992V45.7562H12.0692Z" fill="#EDF0F9"/>
<path d="M18.7187 45.9242C20.8747 45.9242 22.1907 44.3002 22.1907 42.3682C22.1907 40.4222 20.8747 38.8262 18.7187 38.8262C16.5627 38.8262 15.2467 40.4222 15.2467 42.3682C15.2467 44.3002 16.5627 45.9242 18.7187 45.9242ZM18.7187 44.6222C17.4727 44.6222 16.7727 43.5722 16.7727 42.3682C16.7727 41.1782 17.4727 40.1282 18.7187 40.1282C19.9787 40.1282 20.6647 41.1782 20.6647 42.3682C20.6647 43.5722 19.9787 44.6222 18.7187 44.6222Z" fill="#EDF0F9"/>
<path d="M31.3397 45.7562L33.4397 38.9942H31.8997L30.4717 43.9082L28.8757 38.9942H27.5737L25.9637 43.9082L24.5357 38.9942H23.0097L25.1097 45.7562H26.6497L28.2177 40.8002L29.7997 45.7562H31.3397Z" fill="#EDF0F9"/>
<path d="M36.7041 45.9242C37.3761 45.9242 37.8101 45.7282 38.0761 45.4902L37.7261 44.3702C37.6141 44.4962 37.3621 44.6222 37.0821 44.6222C36.6621 44.6222 36.4381 44.2722 36.4381 43.8102V40.2682H37.8101V38.9942H36.4381V37.1462H34.9681V38.9942H33.8481V40.2682H34.9681V44.1742C34.9681 45.3082 35.5561 45.9242 36.7041 45.9242Z" fill="#EDF0F9"/>
<path d="M45.3788 45.7562V40.9682C45.3788 39.5822 44.6508 38.8262 43.1948 38.8262C42.1308 38.8262 41.2628 39.3722 40.8148 39.9042V36.4182H39.3448V45.7562H40.8148V41.0242C41.1508 40.5762 41.7948 40.1282 42.5508 40.1282C43.3768 40.1282 43.9088 40.4362 43.9088 41.5002V45.7562H45.3788Z" fill="#EDF0F9"/>
<path d="M25.7463 1H17.6311C14.5212 1 12 3.57832 12 6.75874V13.6499C12 16.8303 14.5212 19.4086 17.6311 19.4086H25.7463C28.8563 19.4086 31.3775 16.8303 31.3775 13.6499V6.75874C31.3775 3.57832 28.8563 1 25.7463 1Z" fill="#EDF0F9"/>
<path d="M25.7463 0.5H17.6311V1.5H25.7463V0.5ZM17.6311 0.5C14.2345 0.5 11.5 3.3128 11.5 6.75874H12.5C12.5 3.84385 14.8078 1.5 17.6311 1.5V0.5ZM11.5 6.75874V13.6499H12.5V6.75874H11.5ZM11.5 13.6499C11.5 17.0958 14.2345 19.9086 17.6311 19.9086V18.9086C14.8078 18.9086 12.5 16.5648 12.5 13.6499H11.5ZM17.6311 19.9086H25.7463V18.9086H17.6311V19.9086ZM25.7463 19.9086C29.1429 19.9086 31.8775 17.0958 31.8775 13.6499H30.8775C30.8775 16.5648 28.5696 18.9086 25.7463 18.9086V19.9086ZM31.8775 13.6499V6.75874H30.8775V13.6499H31.8775ZM31.8775 6.75874C31.8775 3.3128 29.1429 0.5 25.7463 0.5V1.5C28.5696 1.5 30.8775 3.84385 30.8775 6.75874H31.8775Z" fill="#EDF0F9"/>
<path d="M26.6484 4.27268C26.596 4.15207 26.4972 4.05682 26.3737 4.0078C26.3129 3.98304 26.2477 3.97024 26.1819 3.97015L23.6642 3.99666C23.5306 3.99807 23.4031 4.05166 23.3096 4.14564C23.2162 4.23961 23.1645 4.36629 23.1658 4.49779C23.1672 4.62929 23.2216 4.75484 23.317 4.84683C23.4124 4.93882 23.5411 4.98971 23.6746 4.9883L24.9788 4.97457L21.2918 9.1592L19.6179 7.54043C19.5706 7.49445 19.5145 7.45815 19.4529 7.43363C19.3913 7.4091 19.3253 7.39683 19.2589 7.39753C19.1924 7.39823 19.1267 7.41189 19.0656 7.4377C19.0045 7.46352 18.9492 7.501 18.9029 7.54796L15.9129 10.5547C15.8662 10.6013 15.8293 10.6565 15.8044 10.7172C15.7795 10.7779 15.767 10.8428 15.7677 10.9083C15.7684 10.9738 15.7822 11.0384 15.8084 11.0986C15.8346 11.1587 15.8727 11.2132 15.9203 11.2588C15.9676 11.3047 16.0237 11.341 16.0854 11.3656C16.147 11.3901 16.2129 11.4024 16.2794 11.4017C16.3459 11.401 16.4116 11.3873 16.4727 11.3615C16.5338 11.3357 16.5891 11.2982 16.6354 11.2512L19.2715 8.59534L20.9454 10.2141C20.9927 10.2601 21.0487 10.2964 21.1104 10.3209C21.172 10.3454 21.238 10.3577 21.3044 10.357C21.3709 10.3563 21.4366 10.3426 21.4977 10.3168C21.5588 10.291 21.6141 10.2535 21.6604 10.2066L25.6962 5.6662L25.7097 6.95038C25.7111 7.08188 25.7654 7.20743 25.8609 7.29942C25.9563 7.39141 26.0849 7.4423 26.2184 7.4409C26.352 7.43949 26.4795 7.3859 26.573 7.29193C26.6664 7.19795 26.7182 7.07127 26.7168 6.93977L26.6907 4.46067C26.6892 4.39589 26.6748 4.33202 26.6484 4.27268Z" fill="#263F97"/>
<circle cx="29.5" cy="15.7642" r="6" fill="#EDF0F9" stroke="#263F97"/>
<path d="M31.9868 15.0592C31.9711 15.0129 31.9421 14.9722 31.9036 14.9422C31.865 14.9122 31.8185 14.8941 31.7698 14.8902L30.3445 14.777L29.7278 13.4119C29.7081 13.3679 29.6762 13.3306 29.6358 13.3044C29.5954 13.2781 29.5483 13.2642 29.5001 13.2642C29.4519 13.2641 29.4048 13.278 29.3644 13.3042C29.3239 13.3304 29.292 13.3677 29.2723 13.4116L28.6555 14.777L27.2303 14.8902C27.1824 14.894 27.1366 14.9115 27.0984 14.9406C27.0602 14.9697 27.0312 15.0093 27.0149 15.0544C26.9986 15.0996 26.9956 15.1485 27.0063 15.1953C27.0171 15.2421 27.0411 15.2849 27.0755 15.3184L28.1288 16.345L27.7563 17.9578C27.745 18.0066 27.7486 18.0577 27.7667 18.1044C27.7848 18.1512 27.8165 18.1914 27.8577 18.2199C27.8989 18.2483 27.9478 18.2638 27.9979 18.2642C28.048 18.2645 28.0971 18.2498 28.1388 18.222L29.5 17.3146L30.8613 18.222C30.9039 18.2503 30.9541 18.2648 31.0052 18.2637C31.0563 18.2626 31.1058 18.2458 31.1471 18.2157C31.1884 18.1856 31.2195 18.1436 31.2362 18.0953C31.2529 18.047 31.2544 17.9947 31.2405 17.9455L30.7833 16.3457L31.9173 15.3254C31.9915 15.2584 32.0188 15.1539 31.9868 15.0592V15.0592Z" fill="#263F97"/>
</svg>
