<svg width="28" height="45" viewBox="0 0 28 45" fill="none" xmlns="http://www.w3.org/2000/svg">
<path d="M8.092 44.338V35H6.454V41.482L1.68 35H0V44.338H1.638V37.674L6.51 44.338H8.092Z" fill="#EDF0F9"/>
<path d="M13.7482 44.338C16.6602 44.338 18.6342 42.42 18.6342 39.676C18.6342 36.932 16.6602 35 13.7482 35H10.2762V44.338H13.7482ZM13.7482 42.896H11.9142V36.442H13.7482C15.8342 36.442 16.9542 37.87 16.9542 39.676C16.9542 41.44 15.7782 42.896 13.7482 42.896Z" fill="#EDF0F9"/>
<path d="M27.6396 44.338L25.3576 40.67C26.4776 40.488 27.5696 39.592 27.5696 37.926C27.5696 36.204 26.3656 35 24.5176 35H20.4156V44.338H22.0536V40.852H23.6776L25.7496 44.338H27.6396ZM24.2936 39.41H22.0536V36.442H24.2936C25.2176 36.442 25.8896 37.03 25.8896 37.926C25.8896 38.822 25.2176 39.41 24.2936 39.41Z" fill="#EDF0F9"/>
<path fill-rule="evenodd" clip-rule="evenodd" d="M9.62709 0H18.3229C21.7057 0 23.95 2.53748 23.95 6.18783V14.8122C23.95 18.4625 21.7057 21 18.3229 21H9.62709C6.24429 21 4 18.4625 4 14.8122V6.18783C4 2.5409 6.25022 0 9.62709 0ZM10.37 8.64391C10.3239 8.28634 10.0327 8.01075 9.68042 8.01075C9.29607 8.01075 8.98449 8.33873 8.98449 8.74331V15.4439L8.99084 15.5433C9.03693 15.9009 9.3281 16.1765 9.68042 16.1765C10.0648 16.1765 10.3764 15.8485 10.3764 15.4439V8.74331L10.37 8.64391ZM14.0105 4.80515C14.3628 4.80515 14.654 5.08074 14.7001 5.43831L14.7064 5.53771V15.4446C14.7064 15.8491 14.3949 16.1771 14.0105 16.1771C13.6582 16.1771 13.367 15.9015 13.3209 15.544L13.3146 15.4446V5.53771C13.3146 5.13313 13.6262 4.80515 14.0105 4.80515ZM18.9597 12.1852C18.9136 11.8276 18.6225 11.552 18.2701 11.552C17.8858 11.552 17.5742 11.88 17.5742 12.2846V15.4444L17.5806 15.5438C17.6267 15.9014 17.9178 16.1769 18.2701 16.1769C18.6545 16.1769 18.9661 15.849 18.9661 15.4444V12.2846L18.9597 12.1852Z" fill="#E9ECF5"/>
</svg>
