<svg width="48" height="48" viewBox="0 0 48 48" fill="none" xmlns="http://www.w3.org/2000/svg">
<path d="M7.224 45.338L4.942 41.67C6.062 41.488 7.154 40.592 7.154 38.926C7.154 37.204 5.95 36 4.102 36H0V45.338H1.638V41.852H3.262L5.334 45.338H7.224ZM3.878 40.41H1.638V37.442H3.878C4.802 37.442 5.474 38.03 5.474 38.926C5.474 39.822 4.802 40.41 3.878 40.41Z" fill="#EDF0F9"/>
<path d="M11.6472 45.506C12.7252 45.506 13.7192 45.17 14.3912 44.526L13.7192 43.56C13.2432 44.036 12.4592 44.302 11.8012 44.302C10.5272 44.302 9.75719 43.462 9.64519 42.44H14.8672V42.09C14.8672 39.962 13.5652 38.408 11.5352 38.408C9.53319 38.408 8.10519 39.99 8.10519 41.95C8.10519 44.092 9.61719 45.506 11.6472 45.506ZM13.4392 41.404H9.63119C9.70119 40.578 10.2752 39.612 11.5352 39.612C12.8652 39.612 13.4112 40.606 13.4392 41.404Z" fill="#EDF0F9"/>
<path d="M20.1582 45.506C21.9082 45.506 23.1542 44.176 23.1542 41.95C23.1542 39.724 21.9082 38.408 20.1582 38.408C19.2762 38.408 18.4922 38.828 17.9882 39.5V38.576H16.5182V47.914H17.9882V44.4C18.5342 45.128 19.3042 45.506 20.1582 45.506ZM19.7242 44.204C19.0382 44.204 18.3102 43.784 17.9882 43.294V40.62C18.3102 40.116 19.0382 39.71 19.7242 39.71C20.8862 39.71 21.6282 40.648 21.6282 41.95C21.6282 43.266 20.8862 44.204 19.7242 44.204Z" fill="#EDF0F9"/>
<path d="M27.8639 45.506C30.0339 45.506 31.3499 43.896 31.3499 41.95C31.3499 40.018 30.0339 38.408 27.8639 38.408C25.7219 38.408 24.3919 40.018 24.3919 41.95C24.3919 43.896 25.7219 45.506 27.8639 45.506ZM27.8639 44.204C26.6179 44.204 25.9179 43.154 25.9179 41.95C25.9179 40.76 26.6179 39.71 27.8639 39.71C29.1239 39.71 29.8239 40.76 29.8239 41.95C29.8239 43.154 29.1239 44.204 27.8639 44.204Z" fill="#EDF0F9"/>
<path d="M34.5073 45.338V40.732C34.8013 40.256 35.6273 39.836 36.2433 39.836C36.4253 39.836 36.5793 39.85 36.7053 39.878V38.422C35.8233 38.422 35.0113 38.926 34.5073 39.57V38.576H33.0373V45.338H34.5073Z" fill="#EDF0F9"/>
<path d="M40.1208 45.506C40.8068 45.506 41.2408 45.324 41.5068 45.072L41.1568 43.966C41.0448 44.092 40.7788 44.204 40.4988 44.204C40.0788 44.204 39.8548 43.868 39.8548 43.406V39.864H41.2268V38.576H39.8548V36.728H38.3848V38.576H37.2648V39.864H38.3848V43.77C38.3848 44.89 38.9868 45.506 40.1208 45.506Z" fill="#EDF0F9"/>
<path d="M45.0715 45.506C46.8915 45.506 47.8855 44.596 47.8855 43.406C47.8855 40.718 43.7975 41.614 43.7975 40.41C43.7975 39.934 44.2875 39.584 45.0575 39.584C45.8975 39.584 46.6535 39.934 47.0595 40.396L47.6755 39.36C47.0595 38.814 46.1915 38.408 45.0435 38.408C43.3355 38.408 42.3835 39.36 42.3835 40.466C42.3835 43.056 46.4715 42.104 46.4715 43.434C46.4715 43.966 46.0235 44.344 45.1415 44.344C44.2595 44.344 43.3215 43.882 42.8455 43.392L42.1735 44.456C42.8735 45.142 43.9235 45.506 45.0715 45.506Z" fill="#EDF0F9"/>
<path d="M18.353 1.92432H27.7567L27.8879 3.69063C28.08 6.27767 30.7637 7.90491 33.1464 6.87921V16.4366C33.1464 19.7408 31.0977 22.0708 27.7935 22.0708H18.353C15.0086 22.0708 13 19.7408 13 16.4366V7.56853C13 4.26436 15.0488 1.92432 18.353 1.92432Z" fill="#E9ECF5"/>
<path d="M17.9014 14.7186L21.1855 10.4503L24.9315 13.3929L28.1453 9.24512" stroke="#263F97" stroke-width="2" stroke-linecap="round" stroke-linejoin="round"/>
<ellipse cx="31.8908" cy="3.10905" rx="2.10905" ry="2.10905" stroke="#E9ECF5" stroke-width="1.5" stroke-linecap="round" stroke-linejoin="round"/>
</svg>
